<svg width="512" height="512" xmlns="http://www.w3.org/2000/svg" viewBox="0 0 200 200">
  <circle cx="100" cy="100" r="95" fill="#b30000"/>
  <circle cx="100" cy="100" r="90" fill="none" stroke="white" stroke-width="2"/>
  <g transform="translate(100, 100)">
    <path d="M -40 -50 L -40 -5 L -35 0 L -40 5 L -40 50 L -25 50 L -25 -5 L -30 0 L -25 -5 L -25 -50 Z" fill="white"/>
    <path d="M 10 -50 L 10 50 L 35 50 Q 50 50 50 35 Q 50 25 40 20 Q 50 15 50 5 Q 50 -10 35 -10 L 10 -10 Z" fill="white"/>
    <rect x="10" y="-10" width="15" height="15" fill="white"/>
    <rect x="10" y="5" width="15" height="15" fill="white"/>
    <rect x="-55" y="60" width="110" height="3" fill="white"/>
  </g>
</svg>
