<?xml version="1.0" encoding="UTF-8"?>
<svg xmlns="http://www.w3.org/2000/svg" version="1.1" viewBox="0 0 309.1 114.4">
  <defs>
    <style>
      .cls-1 {
        fill: #79242f;
      }

      .cls-2 {
        fill: #006055;
      }

      .cls-3 {
        fill: #6b1e0e;
      }

      .cls-4 {
        fill: #015289;
      }

      .cls-5 {
        fill: none;
      }
    </style>
  </defs>
  <!-- Generator: Adobe Illustrator 28.7.1, SVG Export Plug-In . SVG Version: 1.2.0 Build 142)  -->
  <g>
    <g id="Layer_1">
      <g>
        <g>
          <path class="cls-5" d="M236.4,63.2c-.8-1.1-1.8-1.2-2.5-1.2s-1.6,0-2.5,1.2c-.6.7-.8,1.4-.9,2h6.5c0-.7-.1-1.3-.6-2Z"/>
          <path class="cls-5" d="M246,71.6c.3,0,1.5-.1,2.8-1.5v-3.5c-.8.6-1.1.7-2.1,1-.7.2-2.5.8-2.5,2.4,0,.9.8,1.7,1.8,1.7Z"/>
          <path class="cls-5" d="M26.9,74.4c0-3.2-1.1-5.6-3.9-6.8-1.9-.8-4.1-.9-6.8-.9h-2.8v15.1h3.6c4.6,0,10-1.3,10-7.5Z"/>
          <path class="cls-5" d="M70.8,63.2c-.7-1.1-1.8-1.2-2.4-1.2s-1.6,0-2.5,1.2c-.6.7-.8,1.4-.9,2h6.4c0-.7-.1-1.3-.6-2Z"/>
          <path class="cls-5" d="M192.3,72.3c.4,0,.9-.1,1.3-.3,1.6-1,1.7-3.6,1.7-4.6,0-2-.6-3.7-1.3-4.5-.5-.5-1.2-.9-2.1-.9s-1.8.5-2.2,1.1c-.7.9-1,2.2-1,3.6,0,2.5,1,5.5,3.5,5.5Z"/>
          <path class="cls-5" d="M25.4,88.6c-2.5-1.6-5.2-1.6-7.4-1.6h-4.7v11.6c0,3.3,0,6,4.8,6s6-.4,8.1-2c1.5-1.2,3-3.3,3-6.6,0-4.5-2.5-6.6-3.8-7.4Z"/>
          <path class="cls-2" d="M215.7,63l4.6,10.7h1.7l4.9-10.7c.6-1.2.8-1.6,1.7-1.7v-.4h-4.9v.4c.3,0,1.2.1,1.2,1.1s-.2.9-.3,1.1l-2.6,6-2.5-6.2c-.1-.3-.2-.6-.2-.9,0-.8.8-1,1.1-1v-.4h-6.3v.4c.9,0,1.3.6,1.7,1.7Z"/>
          <path class="cls-2" d="M26.8,83.7c5.1-1.4,9.7-4.3,9.7-10.7s-1.8-8.1-6.4-10c-2.6-1.1-5.9-1.3-10.1-1.3H0v1c4.1.5,4.1,2.9,4.1,6.4v33.2c0,3.7-.5,5.5-4.1,6.2v1h20.5c3.7,0,8.3,0,12.3-2.4,3.1-1.9,6-5.6,6-10.8,0-7.4-5.6-11.2-12.1-12.6ZM13.3,66.8h2.8c2.8,0,5,0,6.8.9,2.7,1.2,3.9,3.6,3.9,6.8,0,6.1-5.4,7.4-10,7.4h-3.6v-15.1h0ZM26.2,102.7c-2.1,1.6-5.4,2-8.1,2-4.7,0-4.8-2.7-4.8-6v-11.6h4.7c2.2,0,4.9,0,7.4,1.6,1.3.8,3.8,3,3.8,7.4,0,3.3-1.5,5.5-3,6.6Z"/>
          <path class="cls-2" d="M51,82.9v-5.8l-13.1,6.8.3.8c4.3,0,4.3,3.3,4.3,6.8v10c0,1.3,0,3.1-.5,4.3-.9,2-2.4,2.5-3.5,2.8v.9h16.5v-.9c-3.7-1.3-4.1-2.2-4.1-7.2v-9.3c0-1.6,0-3.6,1.3-5.5,1.2-1.7,3-2.7,5.3-2.7s4.2,1.9,5,3.3h.8l1.4-9.1c-.8-.3-2-.7-3.9-.7-5.1,0-7.8,3.1-9.9,5.4Z"/>
          <path class="cls-2" d="M100.8,98.2v-20.5l-12.5,2.5v.9c3.3.5,4,1.8,4,5v10.9c0,1.4,0,3.4-1.6,5.3-1.2,1.4-3.2,2.4-5.9,2.4s-5.2-1.6-6-4.1c-.3-1.1-.5-2.2-.5-3.7v-19.4l-12.3,2.5v.9c3.5.5,3.8,2.2,3.8,5.8v11.8c0,2.5.1,5.5,2.2,8.1.9,1.2,3.4,3.9,9,3.9s9.5-2.9,11.8-6c.5,1.9,1.3,3.9,4.5,6.2l7.4-5.6-.4-.7c-3.5-.7-3.5-3.2-3.5-6.5Z"/>
          <path class="cls-2" d="M140.4,101.8v-11.6c0-3,0-6-2.1-8.6-1.5-2-4.5-3.9-8.9-3.9s-9.2,3.2-11.4,5.3v-5.9l-13.1,6.8.5.8c4.1.1,4.2,2.3,4.2,6.6v10.3c0,3.4,0,6.4-4.1,7v.9h16.4v-.9c-3.7-1-3.9-2.5-3.9-6.2v-11.6c0-1.6,0-3.9,2.4-5.8,1.1-.8,2.6-1.5,4.8-1.5,6.6,0,6.7,5.6,6.7,7.2v11.6c0,3.5,0,5.3-3.7,6.2v.9h16.3v-.9c-4-.7-4.1-2.6-4.1-6.8Z"/>
          <path class="cls-2" d="M162.3,91.9l-2.6-1.2c-2.2-1-4.8-2.2-4.8-4.9s2.1-4,5.1-4c4.9,0,5.8,3.4,6.3,5.1h.9v-7.5c-1.5-.5-4.5-1.6-8.7-1.6-7.8,0-12,4.3-12,9.5s3.5,6.6,5.3,7.7l2.8,1.3c2.4,1.2,5.4,2.8,5.4,5.8s-3.1,4.7-6,4.7c-5.1,0-6.3-3.5-6.9-5.5h-1v8.1c2.6.8,4.9,1.6,9.2,1.6s8.3-1.8,9.8-3.1c2.1-1.8,3.3-4.6,3.3-7.3,0-5.5-4.7-7.8-6.3-8.5Z"/>
          <path class="cls-2" d="M225.7,78.8h-12.1v.9c.8.1,2.9.5,2.9,2.8s-.3,1.6-.7,2.4l-6.6,14.9-6.2-14.9c-.2-.7-.5-1.6-.5-2.2,0-2.4,1.8-2.8,2.7-3v-.9h-15.6v.9c1.8.3,2.6.8,3.7,3.1l1.6,3.3-6.2,13.8-6-14.7c-.3-.7-.6-1.6-.6-2.4,0-1.8,1-2.7,2.8-3v-.9h-15.7v.9c2.6.9,2.9,1.4,4.4,4.9l11.1,25.5h4l8.6-18.4,8.1,18.4h4l12-25.5c1.4-3,1.8-4,4.5-4.9v-.9h0Z"/>
          <path class="cls-2" d="M76.1,63.2l4.5,10.3h1.6l3.5-7.5,3.3,7.5h1.6l4.9-10.3c.6-1.2.7-1.6,1.8-2v-.4h-4.9v.4c.3,0,1.2.2,1.2,1.2s-.1.6-.3,1l-2.7,6-2.5-6c0-.3-.2-.6-.2-.9,0-1,.7-1.1,1.1-1.2v-.4h-6.3v.4c.7.1,1,.3,1.5,1.2l.6,1.3-2.5,5.6-2.4-6c-.1-.3-.2-.6-.2-1,0-.7.4-1.1,1.1-1.2v-.4h-6.4v.4c1,.4,1.2.6,1.8,2Z"/>
          <path class="cls-2" d="M238.3,102.3v-25.3l-13,6.4.4.7c4-.2,4.2,1.6,4.2,5.2v12.6c0,3.9,0,5.5-4.1,6.7v.9h16.7v-.9c-3.7-.9-4.2-1.8-4.2-6.3Z"/>
          <path class="cls-2" d="M270.6,99.4c-2,2-4.7,4.7-9.9,4.7-7.9,0-10.6-6.6-10.6-11.7s2.7-10.8,9.3-10.8,7.6,4.3,8.7,7.2h1l1.6-7.7c-1.5-1-5.1-3.4-11.2-3.4-10.3,0-16.9,7.8-16.9,17.3s3.9,15.7,14.9,15.7,10.3-1.8,14.2-10.8l-1-.5Z"/>
          <path class="cls-2" d="M304.7,104.9l-12.9-13.6,9.5-8.5c2.6-2.3,2.7-2.4,4.6-3v-.9h-13.2v.9c.6.1,1.9.4,1.9,1.6s-.6,1.5-1.9,2.8l-9.5,8.3v-31.5l-13.1,6.7.4.8c.5-.1.9-.2,1.3-.2,2.9,0,3,2.6,3,5.3v29.6c0,2.9-.3,4.8-3.9,5.4v.9h16.1v-.9c-3.8-.8-3.9-2.9-3.9-6v-8.9l10.5,11.1c3.4,3.5,4.7,4.7,10.6,4.7h4.9v-.9c-1.8-.7-3.1-2.3-4.4-3.8Z"/>
          <path class="cls-2" d="M169.8,73c-1.1-.2-1.6-.5-1.6-2.4v-12.9l13.6,15.9h1.6v-16.8c0-1.5.2-2.1,1.7-2.4v-.4h-5.5v.4c1.6.3,1.7,1,1.7,2.5v10.6l-11.5-13.5h-5.5v.4c.4,0,1.2.1,1.5.9.2.4.2.8.2,1.3v14c0,.9,0,1.5-.5,1.9-.4.4-.8.4-1.2.5v.4h5.5v-.4Z"/>
          <path class="cls-2" d="M46.3,73c-1.1-.2-1.7-.5-1.7-2.4v-12.9l13.7,15.9h1.7v-16.8c0-1.5.2-2.1,1.7-2.4v-.4h-5.5v.4c1.5.3,1.7,1,1.7,2.5v10.6l-11.5-13.5h-5.5v.4c.4,0,1.2.1,1.5.9.2.4.2.8.2,1.3v14c0,.9,0,1.5-.5,1.9-.4.4-.8.4-1.2.5v.4h5.5v-.4h0Z"/>
          <path class="cls-2" d="M186.9,72c1.5,1.6,3.4,1.9,5,1.9,5.1,0,7.1-3.6,7.1-6.8s-2.2-6.7-6.9-6.7-7,3.1-7,6.8c0,1.9.7,3.6,1.8,4.8ZM189.7,63.2c.4-.6,1.2-1.1,2.2-1.1s1.6.4,2.1.9c.7.8,1.3,2.4,1.3,4.5s0,3.6-1.7,4.6c-.4.2-.9.3-1.3.3-2.5,0-3.5-3.1-3.5-5.5,0-1.4.3-2.8,1-3.6Z"/>
          <path class="cls-2" d="M200.5,64.2v4.8c0,1,0,2.2.9,3.3.4.5,1.4,1.6,3.7,1.6s3.9-1.2,4.8-2.4c.2.8.6,1.6,1.8,2.5l3-2.3-.2-.3c-1.4-.3-1.4-1.3-1.4-2.7v-8.4l-5.1,1v.4c1.4.2,1.6.7,1.6,2v4.4c0,.6,0,1.4-.7,2.2-.5.6-1.3,1-2.4,1s-2.1-.6-2.4-1.7c-.1-.4-.2-.9-.2-1.5v-7.9l-5,1v.4c1.4.2,1.5.9,1.5,2.4Z"/>
          <path class="cls-2" d="M234,73.9c3.5,0,4.9-2,6-4.3l-.4-.3c-.7.7-2.1,1.9-4.7,1.9s-3.4-.4-4.2-2.6c-.3-.8-.3-1.3-.3-1.9h9.9c0-1.3-.3-2.6-1-3.7-1.5-2.4-4-2.6-5.1-2.6-4.5,0-6.8,3.4-6.8,6.8,0,3.2,2.1,6.6,6.6,6.6ZM231.4,63.2c.9-1.1,2-1.2,2.5-1.2s1.7.1,2.5,1.2c.4.7.5,1.3.6,2h-6.5c.2-.6.4-1.4.9-2Z"/>
          <path class="cls-2" d="M68.4,73.9c3.5,0,4.9-2,6-4.3l-.4-.3c-.7.7-2.1,1.9-4.7,1.9s-3.4-.4-4.2-2.6c-.3-.8-.3-1.3-.3-1.9h9.9c0-1.3-.3-2.6-1-3.7-1.5-2.4-4-2.6-5.2-2.6-4.5,0-6.8,3.4-6.8,6.8,0,3.2,2.1,6.6,6.6,6.6ZM65.8,63.2c.9-1.1,2-1.2,2.5-1.2s1.7.1,2.4,1.2c.4.7.5,1.3.6,2h-6.4c.2-.6.3-1.4.9-2Z"/>
          <path class="cls-2" d="M244.8,73.8c2.2,0,3.3-1.1,4.2-2,.3,1,.7,1.5,1.6,2.1l3.1-2.3-.2-.3c-1.4-.6-1.5-1.2-1.5-2.8v-3c0-1.5,0-2.5-.8-3.5-1.2-1.5-3.1-1.6-4.1-1.6s-2.8.2-4.8.9l-.4,2.9h.4c.4-.5.8-1,1.5-1.4.8-.5,1.7-.7,2.5-.7s1.7.3,2,1c.1.3.2.6.2.9,0,1.3-1.4,1.8-2.7,2.1l-.9.2c-1.3.3-4.3,1.1-4.3,4,0,1.5.9,3.6,4,3.6ZM246.7,67.5c1-.3,1.2-.4,2.1-1v3.5c-1.2,1.4-2.4,1.5-2.8,1.5-1,0-1.8-.7-1.8-1.7,0-1.6,1.7-2.2,2.4-2.4Z"/>
          <path class="cls-2" d="M254.8,64.2v4.8c0,1,0,2.2.9,3.3.4.5,1.4,1.6,3.7,1.6s3.9-1.2,4.8-2.4c.2.8.5,1.6,1.8,2.5l3-2.3-.2-.3c-1.4-.3-1.4-1.3-1.4-2.7v-8.4l-5.1,1v.4c1.4.2,1.6.7,1.6,2v4.4c0,.6,0,1.4-.7,2.2-.5.6-1.3,1-2.4,1s-2.1-.6-2.5-1.7c-.1-.4-.2-.9-.2-1.5v-7.9l-5,1v.4c1.4.2,1.6.9,1.6,2.4Z"/>
        </g>
        <g>
          <path class="cls-4" d="M124.1,64.5c-11.9.5-28.5,9.3-28.5,9.3,0,0,9.1-4.1,19.2-5.6-.8.9-1.3,2-1.1,2.9.5,2.5,5.8,4,10.5,3,1.3-.3,2.5-.8,3.6-1.2-1,.4-8.6,0-8.5-2.9.1-2.2,5.2-3.4,8.9-2,3.1,1.1,5.4,5.2,4.5,6.9.2-.2.3-.5.5-.8,1.4-3.1.2-10-9.2-9.6Z"/>
          <path class="cls-4" d="M162.4,67.2c-.5-2.5-4.6-3.7-9.3-2.8-2,.4-3.8,1.2-5.1,2-3.2,1.9-7.9,5.9-7.9,5.9,1.1-.8,2.6-1.5,4.1-2.2,2-.9,11.1-4.5,12.2-1.4.5,1.4-1.2,3.3-5.9,3.9-1.2.2-2.9,0-3.7-.3,1.6,1.3,4.8,1.8,8.2,1.1,4.7-.9,8.1-3.6,7.6-6.1Z"/>
        </g>
        <path class="cls-5" d="M135,13.2s8.3,7.8-15,35.6c0,0,17.5-14.6,28.4-11.7,0,0,4.3,1,8,6.8,3-7,5.5-14.7,3.3-21.5,0,0-7.1-9.3-24.8-9.3Z"/>
        <path class="cls-1" d="M93.7,72.9s37.4-19.5,55.9-16.7c-7.2,10.9-15.4,18.8-15.4,18.8,11.8-7.9,18.9-16,23.3-23.4-23.3-9.2-63.8,21.3-63.8,21.3Z"/>
        <path class="cls-1" d="M161.6,21.1s-3.8-5.1-12.9-8.6c-.5-3.1-1.3-5.9-2.2-8.3.5,2.1.6,5.2.4,7.6-5.5-1.9-12.7-3.2-21.8-2.7,0,0,19.6,9.2-20.1,52.3,0,0,32.5-22.3,43.4-19.4,0,0,4.7.7,9.4,8.7,8.8-16.5,3.8-29.5,3.8-29.5ZM156.4,44c-3.8-5.9-8-6.8-8-6.8-10.8-2.9-28.4,11.7-28.4,11.7,23.3-27.8,15-35.6,15-35.6,17.6,0,24.8,9.3,24.8,9.3,2.2,6.8-.3,14.5-3.3,21.5Z"/>
        <path class="cls-3" d="M145.1,4.9c-10.3-1.5-16,1.6-16.7,2,10.8.3,13,1.4,16.8,2.4.3-1.4,0-4.4,0-4.4Z"/>
      </g>
    </g>
  </g>
</svg>